<?xml version="1.0" encoding="UTF-8" standalone="no"?>
<!-- Created with Inkscape (http://www.inkscape.org/) -->

<svg
   width="129.68001mm"
   height="141.34952mm"
   viewBox="0 0 129.68001 141.34952"
   version="1.1"
   id="svg1"
   xml:space="preserve"
   inkscape:version="1.3 (0e150ed6c4, 2023-07-21)"
   sodipodi:docname="inomeado.svg"
   inkscape:export-filename="inomeado.pdf"
   inkscape:export-xdpi="103.5"
   inkscape:export-ydpi="103.5"
   xmlns:inkscape="http://www.inkscape.org/namespaces/inkscape"
   xmlns:sodipodi="http://sodipodi.sourceforge.net/DTD/sodipodi-0.dtd"
   xmlns="http://www.w3.org/2000/svg"
   xmlns:svg="http://www.w3.org/2000/svg"><sodipodi:namedview
     id="namedview1"
     pagecolor="#ffffff"
     bordercolor="#000000"
     borderopacity="0.25"
     inkscape:showpageshadow="2"
     inkscape:pageopacity="0.0"
     inkscape:pagecheckerboard="0"
     inkscape:deskcolor="#d1d1d1"
     inkscape:document-units="mm"
     inkscape:zoom="0.13670139"
     inkscape:cx="-1733.7059"
     inkscape:cy="4436.6777"
     inkscape:window-width="1920"
     inkscape:window-height="991"
     inkscape:window-x="-9"
     inkscape:window-y="-9"
     inkscape:window-maximized="1"
     inkscape:current-layer="layer1"
     showguides="false" /><defs
     id="defs1" /><g
     inkscape:label="Camada 1"
     inkscape:groupmode="layer"
     id="layer1"
     transform="translate(-110.07728,-907.7161)"><path
       id="path77"
       style="fill:#000000"
       d="m 211.62403,915.97281 c -0.70074,-0.0221 -1.40381,-0.0186 -2.10788,0.0109 -3.75504,0.15724 -7.53821,1.05448 -11.14144,2.76676 -14.36214,6.82451 -20.62533,24.09656 -13.91026,38.35993 l 0.93431,1.98438 -1.13275,4.38629 c -1.06303,4.11799 -1.11069,4.45785 -0.78548,5.54333 0.44209,1.47555 1.72013,2.75359 3.19567,3.19567 1.08548,0.32522 1.42534,0.27754 5.54333,-0.78548 l 4.38629,-1.13275 1.98438,0.93535 c 2.46105,1.16021 6.11639,2.21126 8.73125,2.51044 2.85991,0.32726 3.69231,0.32928 6.52622,0.0129 19.82281,-2.21042 31.62775,-23.26664 23.10246,-41.20782 -4.833,-10.17107 -14.81525,-16.2486 -25.3261,-16.57987 z m -0.91881,5.14025 c 7.56348,-0.0131 15.14101,3.53056 19.89646,10.63605 5.23586,7.82301 5.3365,18.08586 0.25477,25.99686 -3.49732,5.44438 -9.08252,9.2862 -15.3877,10.5854 v 5.2e-4 c -2.488,0.51233 -7.10169,0.51272 -9.47022,0.009 -2.34925,-0.50376 -4.58162,-1.3227 -6.52518,-2.39417 -0.89979,-0.49605 -2.01038,-0.89917 -2.4784,-0.89917 -0.46645,0 -2.44224,0.43618 -4.39043,0.96894 -1.94819,0.53277 -3.62014,0.8907 -3.71554,0.7953 -0.0954,-0.0954 0.26254,-1.76735 0.7953,-3.71554 0.53277,-1.9482 0.96842,-3.89806 0.96842,-4.33255 0,-0.43449 -0.52046,-1.81064 -1.15704,-3.05821 -1.65196,-3.23747 -2.34495,-5.9858 -2.48925,-9.87227 -0.19873,-5.35243 0.98362,-9.61844 3.88503,-14.01516 4.69994,-7.122 12.2503,-10.69171 19.81378,-10.70478 z m 9.71104,9.56428 c -0.89763,0.0236 -1.77858,0.20245 -2.67529,0.53795 -1.29026,0.48274 -2.11804,1.16285 -5.76451,4.73408 l -4.25814,4.17029 -1.1901,-1.05834 c -1.71606,-1.52514 -3.04529,-2.11995 -5.05809,-2.26446 -2.58188,-0.18535 -4.211,0.43533 -6.09937,2.32389 -1.81594,1.81594 -2.4882,3.63609 -2.2624,6.12624 0.23014,2.53799 0.87023,3.45006 5.94744,8.47804 4.05882,4.01912 4.88207,4.71304 6.02082,5.07617 1.80825,0.57653 4.45886,0.41404 6.11901,-0.37517 1.72789,-0.8214 15.64762,-14.77074 16.50339,-16.53852 0.80514,-1.66321 0.96095,-3.89467 0.40566,-5.80482 -0.61579,-2.11805 -2.8509,-4.39866 -4.91133,-5.01054 -0.96499,-0.28657 -1.87947,-0.41841 -2.77709,-0.39481 z m 0.33176,5.07204 c 1.60793,0.1 2.99154,1.85711 2.4629,3.4587 -0.34201,1.03631 -13.55448,14.30681 -14.64975,14.71435 -0.87056,0.32389 -0.90317,0.3237 -1.76889,-0.0155 -1.03518,-0.4056 -8.15911,-7.63983 -8.47958,-8.61085 -0.5969,-1.80845 1.25233,-3.87604 3.06131,-3.42201 0.39753,0.0998 1.70454,1.1223 2.90473,2.2717 2.22143,2.12744 3.05373,2.57637 4.14858,2.24017 0.33792,-0.10375 2.93565,-2.48622 5.7733,-5.29425 3.02932,-2.99788 5.4446,-5.17668 5.84977,-5.27823 0.23395,-0.0586 0.46793,-0.0784 0.69763,-0.0641 z m -65.93241,23.75772 c -1.39587,0.0961 -2.11254,0.86851 -2.86443,2.54972 -1.52997,3.42153 -1.50293,7.09866 0.0775,10.58488 0.4338,0.95673 0.78858,1.76679 0.78858,1.79989 0,0.0331 -0.74433,0.33155 -1.65364,0.66301 -5.16976,1.88408 -9.24519,6.5342 -10.82983,12.35687 -0.75583,2.77701 -0.81816,8.45608 -0.1292,11.71711 1.04801,4.95942 3.18743,10.21032 5.76761,14.15522 2.42531,3.7083 6.12676,7.0381 8.69715,7.8228 1.43075,0.4368 3.00065,0.2278 6.08541,-0.8108 4.06072,-1.3673 4.94518,-1.3639 9.078,0.029 3.78999,1.2778 5.23293,1.2975 7.60729,0.097 3.02901,-1.5302 7.17294,-6.5204 9.55187,-11.5032 2.60994,-5.4665 3.79893,-10.44756 3.75843,-15.74271 -0.0336,-4.39219 -0.55063,-6.6937 -2.22777,-9.91775 -3.73192,-7.17303 -11.55204,-10.73962 -17.98702,-8.20311 -0.73343,0.28909 -1.3591,0.52628 -1.3901,0.52658 -0.031,3.1e-4 -0.0164,-0.76714 0.032,-1.7048 0.18732,-3.62767 -1.29443,-7.32056 -4.03231,-10.05004 -1.91662,-1.91075 -4.13734,-3.14875 -6.92929,-3.86281 -1.4809,-0.37875 -2.56279,-0.56463 -3.40031,-0.50695 z m 1.78852,5.37487 c 0.10166,0.002 0.22909,0.0263 0.39274,0.0646 1.29562,0.30357 3.34451,1.44344 4.37545,2.43396 2.01846,1.93986 2.99727,4.42667 2.69492,6.84662 -0.15156,1.21289 -0.25337,1.40294 -0.75137,1.40094 -0.99067,-0.004 -3.29318,-1.24156 -4.61988,-2.48253 -2.13131,-1.99359 -3.09272,-4.74975 -2.59054,-7.42642 0.12108,-0.64542 0.19369,-0.84311 0.49868,-0.83716 z m 18.29397,14.49214 c 1.20768,-0.0592 2.26599,0.28559 3.73104,1.00665 3.25557,1.60271 5.92146,5.16283 6.70657,8.95553 0.40575,1.96028 0.36198,6.51178 -0.0858,8.85011 -1.42493,7.4473 -6.73185,16.4537 -10.5513,17.9059 -0.60402,0.2296 -1.23807,0.096 -3.82819,-0.8098 -2.79282,-0.9761 -3.3561,-1.0852 -5.61774,-1.0852 -2.26338,0 -2.82375,0.1087 -5.63118,1.0899 -1.71487,0.5993 -3.1436,1.0818 -3.175,1.0728 -4.14018,-1.2167 -9.66587,-10.2052 -11.1988,-18.2165 -0.46225,-2.4157 -0.50711,-6.75096 -0.0899,-8.75398 0.80769,-3.8812 3.44387,-7.39713 6.7753,-9.03563 1.54555,-0.76015 2.06768,-0.88388 3.65869,-0.86868 1.58042,0.0151 2.21073,0.17727 4.24522,1.09348 4.40425,1.9833 6.2608,2.02132 10.43347,0.21239 2.06266,-0.8943 3.42013,-1.35773 4.62762,-1.41697 z m -25.94777,69.35499 c 0.0615,0.094 0.1251,0.1858 0.18656,0.2795 0.0759,0.021 0.15341,0.037 0.22944,0.057 -0.13966,-0.1112 -0.27723,-0.2246 -0.416,-0.3369 z"
       inkscape:export-filename="AgendaAlimentacao\AgendaAlimentacao\icones\alterar_alimento.svg"
       inkscape:export-xdpi="103.5"
       inkscape:export-ydpi="103.5" /><path
       id="path109"
       style="fill:#000000;stroke:none;stroke-opacity:1"
       d="m 110.75309,990.56095 c 4.12503,26.97145 26.09253,47.94215 53.10752,50.69805 18.431,1.8802 36.09036,-4.4835 49.31717,-17.7722 2.8328,-2.8461 8.01881,-9.907 9.92642,-13.5153 4.84221,-9.1591 7.31832,-19.42405 7.17316,-29.73668 -0.0105,-0.74401 -0.21051,-3.21554 -0.30625,-4.21049 -0.26093,0.98246 -4.35547,4.12786 -8.90242,3.02946 0.91367,15.93643 -5.75638,31.38191 -18.79307,42.00441 -18.23708,14.8599 -44.29681,15.2333 -63.03845,0.9035 -4.59634,-3.5143 -7.78008,-6.8549 -10.9926,-11.5344 -7.60048,-11.07131 -10.53328,-24.15265 -8.34816,-37.23389 2.26582,-13.56456 9.87981,-25.64459 21.09815,-33.47336 2.48284,-1.73266 7.46139,-4.49731 7.71104,-4.28199 0.0686,0.0591 2.58657,4.18801 5.59531,9.17469 3.39296,5.62359 5.77688,9.31192 6.27717,9.71238 2.04602,1.63777 5.11706,1.21535 6.54135,-0.89958 0.52513,-0.7797 8.42312,-32.32938 8.45034,-33.75609 0.0238,-1.25061 -0.76255,-2.74623 -1.84881,-3.51571 -0.75669,-0.53598 -4.70279,-1.60681 -17.23343,-4.67738 -15.55928,-3.81274 -16.31047,-3.96875 -17.63295,-3.6528 -2.34,0.55902 -3.7025,2.50745 -3.35283,4.79376 0.17845,1.16679 2.59571,5.42932 8.28108,14.60122 0.0836,0.13497 -0.96683,0.82504 -2.33434,1.53379 -6.99655,3.62616 -13.93247,9.57111 -19.01573,16.29858 -4.4988,5.95392 -7.28597,11.32003 -9.51082,18.3109 -2.80583,8.81634 -3.551,18.16196 -2.16885,27.1991 z"
       sodipodi:nodetypes="sssssccssssssssssssssssssss" /></g></svg>
